REM DIRINDEX 1\2,1\3\7,1\3\8,1\4\9,1\4\10,1\4\11,1\5\12,1\5\13,1\5\14,1\6\15,1\6\16,1\6\17
REM DIRNAME "folder01","folder02","folder03","folder04","folder05","folder06","folder07","folder08","folder09","folder10","folder11","folder12","folder13","folder14","folder15","folder16","folder17"
TITLE ""
FILE "2Q_t_0418-0434.mp3" MP3
  TRACK 01 AUDIO
    TITLE "7:cjc174_2586"
    INDEX 01 00:00:00
  TRACK 02 AUDIO
    TITLE "0:"
    INDEX 01 00:00:69
  TRACK 03 AUDIO
    TITLE "8:cjc174_2587"
    INDEX 01 00:01:43
  TRACK 04 AUDIO
    TITLE "0:"
    INDEX 01 00:05:10
  TRACK 05 AUDIO
    TITLE "7:cjc174_2588"
    INDEX 01 00:05:55
  TRACK 06 AUDIO
    TITLE "0:"
    INDEX 01 00:06:56
  TRACK 07 AUDIO
    TITLE "8:cjc174_2589"
    INDEX 01 00:07:28
  TRACK 08 AUDIO
    TITLE "0:"
    INDEX 01 00:11:16
  TRACK 09 AUDIO
    TITLE "7:cjc174_2590"
    INDEX 01 00:11:59
  TRACK 10 AUDIO
    TITLE "0:"
    INDEX 01 00:13:05
  TRACK 11 AUDIO
    TITLE "8:cjc174_2591"
    INDEX 01 00:13:56
  TRACK 12 AUDIO
    TITLE "0:"
    INDEX 01 00:15:18
  TRACK 13 AUDIO
    TITLE "7:cjc174_2592"
    INDEX 01 00:15:61
  TRACK 14 AUDIO
    TITLE "0:"
    INDEX 01 00:17:15
  TRACK 15 AUDIO
    TITLE "8:cjc174_2593"
    INDEX 01 00:17:60
  TRACK 16 AUDIO
    TITLE "0:"
    INDEX 01 00:20:66
  TRACK 17 AUDIO
    TITLE "7:cjc174_2594"
    INDEX 01 00:21:36
  TRACK 18 AUDIO
    TITLE "0:"
    INDEX 01 00:22:39
  TRACK 19 AUDIO
    TITLE "8:cjc174_2595"
    INDEX 01 00:23:13
  TRACK 20 AUDIO
    TITLE "0:"
    INDEX 01 00:27:66
  TRACK 21 AUDIO
    TITLE "7:cjc174_2596"
    INDEX 01 00:28:36
  TRACK 22 AUDIO
    TITLE "0:"
    INDEX 01 00:29:39
  TRACK 23 AUDIO
    TITLE "8:cjc174_2597"
    INDEX 01 00:30:09
  TRACK 24 AUDIO
    TITLE "0:"
    INDEX 01 00:32:61
  TRACK 25 AUDIO
    TITLE "7:cjc174_2598"
    INDEX 01 00:33:31
  TRACK 26 AUDIO
    TITLE "0:"
    INDEX 01 00:34:37
  TRACK 27 AUDIO
    TITLE "8:cjc174_2599"
    INDEX 01 00:35:13
  TRACK 28 AUDIO
    TITLE "0:"
    INDEX 01 00:40:04
  TRACK 29 AUDIO
    TITLE "2:cjc174_2600"
    INDEX 01 00:40:49
  TRACK 30 AUDIO
    TITLE "0:"
    INDEX 01 00:41:54
  TRACK 31 AUDIO
    TITLE "7:cjc174_2601"
    INDEX 01 00:42:24
  TRACK 32 AUDIO
    TITLE "0:"
    INDEX 01 00:43:43
  TRACK 33 AUDIO
    TITLE "8:cjc174_2602"
    INDEX 01 00:44:21
  TRACK 34 AUDIO
    TITLE "0:"
    INDEX 01 00:46:38
  TRACK 35 AUDIO
    TITLE "7:cjc174_2603"
    INDEX 01 00:47:10
  TRACK 36 AUDIO
    TITLE "0:"
    INDEX 01 00:48:37
  TRACK 37 AUDIO
    TITLE "8:cjc174_2604"
    INDEX 01 00:49:15
  TRACK 38 AUDIO
    TITLE "0:"
    INDEX 01 00:52:31
  TRACK 39 AUDIO
    TITLE "7:cjc174_2605"
    INDEX 01 00:53:01
  TRACK 40 AUDIO
    TITLE "0:"
    INDEX 01 00:54:14
  TRACK 41 AUDIO
    TITLE "8:cjc174_2606"
    INDEX 01 00:54:63
  TRACK 42 AUDIO
    TITLE "0:"
    INDEX 01 00:59:27
  TRACK 43 AUDIO
    TITLE "7:cjc174_2607"
    INDEX 01 00:59:70
  TRACK 44 AUDIO
    TITLE "0:"
    INDEX 01 01:01:33
  TRACK 45 AUDIO
    TITLE "8:cjc174_2608"
    INDEX 01 01:02:09
  TRACK 46 AUDIO
    TITLE "0:"
    INDEX 01 01:04:51
  TRACK 47 AUDIO
    TITLE "7:cjc174_2609"
    INDEX 01 01:05:22
  TRACK 48 AUDIO
    TITLE "0:"
    INDEX 01 01:06:60
  TRACK 49 AUDIO
    TITLE "8:cjc174_2610"
    INDEX 01 01:07:32
  TRACK 50 AUDIO
    TITLE "0:"
    INDEX 01 01:08:36
  TRACK 51 AUDIO
    TITLE "7:cjc174_2611"
    INDEX 01 01:09:04
  TRACK 52 AUDIO
    TITLE "0:"
    INDEX 01 01:10:21
  TRACK 53 AUDIO
    TITLE "8:cjc174_2612"
    INDEX 01 01:10:70
  TRACK 54 AUDIO
    TITLE "0:"
    INDEX 01 01:13:07
  TRACK 55 AUDIO
    TITLE "7:cjc174_2613"
    INDEX 01 01:13:52
  TRACK 56 AUDIO
    TITLE "0:"
    INDEX 01 01:14:75
  TRACK 57 AUDIO
    TITLE "8:cjc174_2614"
    INDEX 01 01:15:51
  TRACK 58 AUDIO
    TITLE "0:"
    INDEX 01 01:18:22
  TRACK 59 AUDIO
    TITLE "7:cjc174_2615"
    INDEX 01 01:18:65
  TRACK 60 AUDIO
    TITLE "0:"
    INDEX 01 01:20:11
  TRACK 61 AUDIO
    TITLE "8:cjc174_2616"
    INDEX 01 01:20:60
  TRACK 62 AUDIO
    TITLE "0:"
    INDEX 01 01:23:16
  TRACK 63 AUDIO
    TITLE "7:cjc174_2617"
    INDEX 01 01:23:61
  TRACK 64 AUDIO
    TITLE "0:"
    INDEX 01 01:24:64
  TRACK 65 AUDIO
    TITLE "8:cjc174_2618"
    INDEX 01 01:25:36
  TRACK 66 AUDIO
    TITLE "0:"
    INDEX 01 01:28:73
  TRACK 67 AUDIO
    TITLE "7:cjc174_2619"
    INDEX 01 01:29:42
  TRACK 68 AUDIO
    TITLE "0:"
    INDEX 01 01:30:35
  TRACK 69 AUDIO
    TITLE "8:cjc174_2620"
    INDEX 01 01:31:19
  TRACK 70 AUDIO
    TITLE "0:"
    INDEX 01 01:33:55
